<svg data-v-423bf9ae="" xmlns="http://www.w3.org/2000/svg" viewBox="0 0 267 90" class="iconLeft"><!----><!----><!----><g data-v-423bf9ae="" id="b50f9b62-cc0f-43f1-b8a8-39e19a4f9016" fill="#ffffff" transform="matrix(3.8961039926133587,0,0,3.8961039926133587,112.3285912105769,11.727271443274674)"><path d="M0.32 6.82C0.32 10.19 2.73 12.81 6.15 12.81C9.46 12.81 11.96 10.19 11.96 6.82C11.96 3.44 9.35 0.84 6.15 0.84C2.97 0.84 0.32 3.44 0.32 6.82ZM3.16 6.82C3.16 5.10 4.12 3.37 6.15 3.37C8.19 3.37 9.11 5.10 9.11 6.82C9.11 8.54 8.25 10.26 6.15 10.26C3.99 10.26 3.16 8.54 3.16 6.82ZM13.12 12.60L15.60 12.60L15.60 8.54C15.60 7.83 16.32 7.14 17.07 7.14C17.86 7.14 18.35 7.83 18.35 8.54L18.35 12.60L20.83 12.60L20.83 7.87C20.83 5.87 19.00 5.21 17.68 5.21C16.90 5.21 16.18 5.61 15.62 6.17L15.60 6.17L15.60 5.42L13.12 5.42ZM27.82 5.42L26.11 9.10L24.11 5.42L21.25 5.42L24.65 11.48L22.18 16.24L25.03 16.24L30.67 5.42ZM39.55 12.60L36.48 8.85L39.12 5.42L36.22 5.42L34.97 7.08L33.73 5.42L30.83 5.42L33.46 8.85L30.39 12.60L33.39 12.60L34.97 10.57L36.55 12.60Z"></path></g><!----><g data-v-423bf9ae="" id="b3638efe-3f71-4b9f-ae2e-fa981fae4f4f" transform="matrix(1.2328767123287672,0,0,1.2328767123287672,-7.231507856551914,-9.86301369863014)" stroke="none" fill="#ffffff"><path d="M49.8 57.3L46 68.2V68H15.7l16.8 13h23.1l9.8-30.3-10.8-7.8z"></path><path d="M53.7 39.6l14 10.2-9.5 29.3L75 66.9l7.1-22-25.7-18.6-10.5 7.6z"></path><path d="M81.4 41.9L75 22.2 56.3 8.7 30.8 27.2l4 12.4 21.6-15.8z"></path><path d="M34 42.8l-5.4-16.6L53.2 8H32.5L13.8 21.8 23.5 52h13.2L34 42.8z"></path><path d="M39.4 54H22.1l-9.5-29.1-6.4 19.4L13.4 66h31.5L49 54z"></path></g><!----></svg>