<?xml version="1.0" standalone="no"?>
<!DOCTYPE svg PUBLIC "-//W3C//DTD SVG 20010904//EN"
 "http://www.w3.org/TR/2001/REC-SVG-20010904/DTD/svg10.dtd">
<svg version="1.0" xmlns="http://www.w3.org/2000/svg"
 width="700.000000pt" height="700.000000pt" viewBox="0 0 700.000000 700.000000"
 preserveAspectRatio="xMidYMid meet">
<metadata>
Created by potrace 1.11, written by Peter Selinger 2001-2013
</metadata>
<g transform="translate(0.000000,700.000000) scale(0.100000,-0.100000)"
fill="#000000" stroke="none">
<path d="M0 3500 l0 -3500 3500 0 3500 0 0 3500 0 3500 -3500 0 -3500 0 0
-3500z m4069 2326 c-2 -1 -353 -261 -779 -576 -426 -315 -777 -574 -779 -576
-3 -2 75 -248 172 -547 97 -298 210 -659 252 -802 42 -143 78 -268 81 -278 5
-16 -18 -17 -416 -15 l-422 3 -307 955 c-227 702 -305 958 -297 967 6 6 274
206 595 442 l583 431 661 0 c363 0 658 -2 656 -4z m791 -462 c316 -228 583
-423 592 -432 16 -16 421 -1243 413 -1250 -2 -2 -356 251 -787 563 -431 312
-788 569 -793 572 -6 2 -319 -222 -695 -497 -474 -347 -686 -497 -691 -488
-16 30 -250 769 -245 777 3 4 92 71 198 148 106 77 400 290 653 473 253 184
527 383 609 442 82 59 154 108 160 108 6 0 270 -187 586 -416z m-3115 -1404
c141 -432 276 -847 301 -922 l46 -138 854 0 c648 0 854 -3 854 -12 0 -6 -57
-179 -127 -385 l-128 -373 -1004 3 -1005 2 -229 690 -229 689 203 618 c112
339 204 616 205 615 2 -1 118 -355 259 -787z m3362 106 l811 -587 -54 -167
c-29 -92 -131 -408 -226 -702 l-173 -535 -528 -383 c-291 -211 -530 -382 -533
-380 -2 3 131 420 296 929 164 508 296 927 292 930 -4 4 -223 164 -487 356
-820 596 -886 645 -883 655 7 19 643 477 659 474 8 -2 380 -267 826 -590z
m-592 -711 c184 -132 334 -244 334 -248 1 -7 -459 -1436 -580 -1805 l-41 -122
-738 0 -739 0 -513 396 c-282 218 -522 405 -533 415 -19 19 -2 19 948 17 l967
-3 14 40 c133 380 271 783 386 1128 78 235 146 427 151 425 5 -2 160 -111 344
-243z"/>
</g>
</svg>
